<?xml version="1.0" standalone="no"?>
<!DOCTYPE svg PUBLIC "-//W3C//DTD SVG 20010904//EN"
 "http://www.w3.org/TR/2001/REC-SVG-20010904/DTD/svg10.dtd">
<svg version="1.0" xmlns="http://www.w3.org/2000/svg"
 width="400.000000pt" height="400.000000pt" viewBox="0 0 400.000000 400.000000"
 preserveAspectRatio="xMidYMid meet">

<g transform="translate(0.000000,400.000000) scale(0.100000,-0.100000)"
fill="#000000" stroke="none">
<path d="M2356 3348 c-17 -15 -55 -93 -111 -233 -48 -115 -120 -293 -162 -395
-41 -102 -95 -232 -118 -290 -23 -58 -68 -168 -100 -245 -31 -77 -72 -176 -90
-220 -18 -44 -62 -152 -98 -240 -36 -88 -109 -265 -161 -394 l-96 -234 -10
-206 c-5 -113 -13 -229 -16 -257 -4 -40 -1 -55 11 -68 9 -9 20 -16 25 -16 8 0
104 104 266 290 l101 115 112 275 c62 151 123 300 136 330 13 30 57 138 98
240 72 177 211 517 394 965 47 116 104 253 126 305 69 166 54 200 -117 263
-115 43 -155 46 -190 15z m177 -83 c50 -20 95 -41 98 -47 7 -11 -25 -114 -41
-131 -5 -6 -235 74 -246 86 -3 3 38 98 49 115 13 19 41 15 140 -23z m-86 -207
c105 -40 133 -61 99 -74 -7 -3 -53 11 -102 30 -49 19 -101 39 -116 45 -19 7
-26 15 -22 26 9 22 17 20 141 -27z m-143 -67 c10 -15 -32 -101 -48 -101 -26 0
-27 17 -4 64 21 44 40 57 52 37z m100 -40 c11 -17 -27 -101 -46 -101 -23 0
-23 14 0 67 16 41 34 54 46 34z m110 -40 c4 -5 -3 -30 -14 -55 -14 -34 -25
-46 -41 -46 -13 0 -19 5 -16 13 32 80 41 97 52 97 8 0 16 -4 19 -9z m-184
-125 c63 -24 116 -48 117 -53 1 -4 -1 -13 -5 -20 -6 -9 -39 0 -127 33 -66 26
-121 47 -123 49 -4 4 10 35 17 35 3 0 58 -20 121 -44z m-117 -76 c20 -8 37
-17 37 -20 0 -3 -18 -51 -41 -105 -67 -164 -127 -311 -195 -477 -35 -86 -90
-221 -122 -300 -33 -78 -112 -273 -177 -433 -65 -159 -119 -292 -121 -293 -6
-8 -76 21 -80 33 -5 11 87 244 326 825 38 91 102 248 143 350 41 102 98 241
126 309 28 69 51 127 51 129 0 2 3 2 8 0 4 -2 24 -10 45 -18z m147 -56 c22 -9
40 -22 40 -28 0 -7 -29 -82 -64 -167 -35 -85 -128 -311 -206 -504 -319 -784
-382 -935 -386 -935 -10 0 -84 33 -84 38 0 3 63 159 139 346 287 702 439 1074
477 1168 21 54 40 98 41 98 2 0 21 -7 43 -16z m-666 -1694 c5 -5 -37 -60 -99
-132 -60 -68 -112 -127 -117 -133 -8 -9 -3 182 8 292 l5 52 97 -35 c53 -19
101 -39 106 -44z"/>
<path d="M1264 2702 c-69 -38 -865 -614 -875 -634 -17 -31 -15 -92 4 -121 9
-14 94 -81 189 -148 95 -67 211 -150 258 -184 116 -84 367 -264 409 -292 40
-27 106 -31 139 -7 51 35 68 121 33 165 -10 13 -177 137 -370 274 -193 138
-350 252 -350 255 0 3 158 118 351 255 213 152 358 262 370 280 22 37 23 78 2
115 -34 57 -101 75 -160 42z"/>
<path d="M2619 2703 c-36 -22 -59 -64 -59 -107 0 -28 8 -44 38 -73 21 -21 187
-144 370 -273 182 -129 331 -237 331 -240 0 -3 -158 -117 -350 -255 -193 -137
-360 -261 -370 -274 -35 -44 -18 -130 33 -165 12 -9 41 -16 64 -16 37 0 61 13
220 127 99 69 217 154 264 188 47 34 163 117 258 184 95 67 179 133 188 146
19 29 21 94 3 124 -13 21 -805 595 -873 633 -39 22 -84 22 -117 1z"/>
</g>
</svg>
